<?xml version="1.0" encoding="UTF-8" standalone="no"?>
<svg
   viewBox="0 0 32 32"
   version="1.1"
   id="svg58"
   xmlns="http://www.w3.org/2000/svg"
   xmlns:svg="http://www.w3.org/2000/svg">
  <defs
     id="defs22">
    <linearGradient
       id="c"
       x1="0%"
       y1="0%"
       x2="0%"
       y2="100%">
      <stop
         offset="0%"
         stop-color="#5b8ec9"
         id="stop2" />
      <stop
         offset="100%"
         stop-color="#3d6fa8"
         id="stop4" />
    </linearGradient>
    <linearGradient
       id="cd"
       x1="0%"
       y1="0%"
       x2="0%"
       y2="100%">
      <stop
         offset="0%"
         stop-color="#2f5a8a"
         id="stop7" />
      <stop
         offset="100%"
         stop-color="#1e4670"
         id="stop9" />
    </linearGradient>
    <linearGradient
       id="gn"
       x1="0%"
       y1="0%"
       x2="0%"
       y2="100%">
      <stop
         offset="0%"
         stop-color="#6cc644"
         id="stop12" />
      <stop
         offset="100%"
         stop-color="#4ca82b"
         id="stop14" />
    </linearGradient>
    <linearGradient
       id="rd"
       x1="0%"
       y1="0%"
       x2="0%"
       y2="100%">
      <stop
         offset="0%"
         stop-color="#e74c3c"
         id="stop17" />
      <stop
         offset="100%"
         stop-color="#c0392b"
         id="stop19" />
    </linearGradient>
  </defs>
  <rect
     x="8"
     y="1"
     width="2.5"
     height="4"
     rx="0.5"
     fill="url(#gn)"
     id="rect24" />
  <rect
     x="14"
     y="1"
     width="2.5"
     height="4"
     rx="0.5"
     fill="url(#gn)"
     id="rect26" />
  <rect
     x="20"
     y="1"
     width="2.5"
     height="4"
     rx="0.5"
     fill="url(#gn)"
     id="rect28" />
  <rect
     x="27"
     y="9"
     width="4"
     height="2.5"
     rx="0.5"
     fill="url(#gn)"
     id="rect30" />
  <rect
     x="27"
     y="15"
     width="4"
     height="2.5"
     rx="0.5"
     fill="url(#gn)"
     id="rect32" />
  <rect
     x="27"
     y="21"
     width="4"
     height="2.5"
     rx="0.5"
     fill="url(#gn)"
     id="rect34" />
  <rect
     x="8"
     y="27"
     width="2.5"
     height="4"
     rx="0.5"
     fill="url(#rd)"
     id="rect36" />
  <rect
     x="14"
     y="27"
     width="2.5"
     height="4"
     rx="0.5"
     fill="url(#rd)"
     id="rect38" />
  <rect
     x="20"
     y="27"
     width="2.5"
     height="4"
     rx="0.5"
     fill="url(#rd)"
     id="rect40" />
  <rect
     x="1"
     y="9"
     width="4"
     height="2.5"
     rx="0.5"
     fill="url(#rd)"
     id="rect42" />
  <rect
     x="1"
     y="15"
     width="4"
     height="2.5"
     rx="0.5"
     fill="url(#rd)"
     id="rect44" />
  <rect
     x="1"
     y="21"
     width="4"
     height="2.5"
     rx="0.5"
     fill="url(#rd)"
     id="rect46" />
  <rect
     x="5"
     y="6"
     width="22"
     height="22"
     rx="2"
     fill="url(#cd)"
     id="rect48" />
  <rect
     x="5"
     y="5"
     width="22"
     height="22"
     rx="2"
     fill="url(#c)"
     id="rect50" />
  <rect
     x="6"
     y="6"
     width="20"
     height="10"
     rx="1"
     fill="white"
     opacity="0.1"
     id="rect52" />
  <g
     aria-label="AI"
     id="text54"
     style="font-weight:700;font-size:12px;font-family:Consolas, 'Courier New', monospace;text-anchor:middle;fill:#1e4670">
    <path
       d="M 14.382813,20.5 13.960938,18.988281 H 11.289063 L 10.855469,20.5 H 9.4257813 l 2.2675777,-7.658203 h 2.015625 L 15.976563,20.5 Z m -1.740235,-6.251953 -1.007812,3.5625 h 2.003906 z"
       style="font-weight:700;font-size:12px;font-family:Consolas, 'Courier New', monospace;text-anchor:middle;fill:#1e4670"
       id="path62" />
    <path
       d="m 16.878906,14.019531 v -1.177734 h 4.839844 v 1.177734 h -1.6875 v 5.291016 h 1.6875 V 20.5 h -4.839844 v -1.189453 h 1.6875 v -5.291016 z"
       style="font-weight:700;font-size:12px;font-family:Consolas, 'Courier New', monospace;text-anchor:middle;fill:#1e4670"
       id="path64" />
  </g>
  <g
     aria-label="AI"
     id="text56"
     style="font-weight:700;font-size:12px;font-family:Consolas, 'Courier New', monospace;text-anchor:middle;fill:#ffffff">
    <path
       d="M 14.382813,20 13.960938,18.488281 H 11.289063 L 10.855469,20 H 9.4257813 l 2.2675777,-7.658203 h 2.015625 L 15.976563,20 Z m -1.740235,-6.251953 -1.007812,3.5625 h 2.003906 z"
       style="font-weight:700;font-size:12px;font-family:Consolas, 'Courier New', monospace;text-anchor:middle;fill:#ffffff"
       id="path67" />
    <path
       d="m 16.878906,13.519531 v -1.177734 h 4.839844 v 1.177734 h -1.6875 v 5.291016 h 1.6875 V 20 h -4.839844 v -1.189453 h 1.6875 v -5.291016 z"
       style="font-weight:700;font-size:12px;font-family:Consolas, 'Courier New', monospace;text-anchor:middle;fill:#ffffff"
       id="path69" />
  </g>
</svg>
