<svg xmlns="http://www.w3.org/2000/svg" viewBox="0 0 16 16" width="16" height="16">
  <defs>
    <linearGradient id="c" x1="0%" y1="0%" x2="0%" y2="100%">
      <stop offset="0%" stop-color="#5b8ec9"/><stop offset="100%" stop-color="#3d6fa8"/>
    </linearGradient>
    <linearGradient id="cd" x1="0%" y1="0%" x2="0%" y2="100%">
      <stop offset="0%" stop-color="#2f5a8a"/><stop offset="100%" stop-color="#1e4670"/>
    </linearGradient>
  </defs>
  <rect x="4" y="0" width="1.5" height="2.5" rx="0.3" fill="#6cc644"/>
  <rect x="7" y="0" width="1.5" height="2.5" rx="0.3" fill="#6cc644"/>
  <rect x="10" y="0" width="1.5" height="2.5" rx="0.3" fill="#6cc644"/>
  <rect x="13.5" y="4.5" width="2.5" height="1.5" rx="0.3" fill="#6cc644"/>
  <rect x="13.5" y="7.5" width="2.5" height="1.5" rx="0.3" fill="#6cc644"/>
  <rect x="13.5" y="10.5" width="2.5" height="1.5" rx="0.3" fill="#6cc644"/>
  <rect x="4" y="13.5" width="1.5" height="2.5" rx="0.3" fill="#e74c3c"/>
  <rect x="7" y="13.5" width="1.5" height="2.5" rx="0.3" fill="#e74c3c"/>
  <rect x="10" y="13.5" width="1.5" height="2.5" rx="0.3" fill="#e74c3c"/>
  <rect x="0" y="4.5" width="2.5" height="1.5" rx="0.3" fill="#e74c3c"/>
  <rect x="0" y="7.5" width="2.5" height="1.5" rx="0.3" fill="#e74c3c"/>
  <rect x="0" y="10.5" width="2.5" height="1.5" rx="0.3" fill="#e74c3c"/>
  <rect x="2.5" y="3" width="11" height="11" rx="1.5" fill="url(#cd)"/>
  <rect x="2.5" y="2.5" width="11" height="11" rx="1.5" fill="url(#c)"/>
  <text x="8" y="11" text-anchor="middle" font-family="Consolas,'Courier New',monospace" font-size="7.5" font-weight="700" fill="#1e4670">AI</text>
  <text x="8" y="10.5" text-anchor="middle" font-family="Consolas,'Courier New',monospace" font-size="7.5" font-weight="700" fill="white">AI</text>
</svg>